<svg id="dots" width="160" height="127" viewBox="0 0 160 127" fill="none" xmlns="http://www.w3.org/2000/svg">
<circle cx="2.5" cy="69.5" r="2.5" fill="black" fill-opacity="0.12"/>
<circle cx="2.5" cy="102.5" r="2.5" fill="black" fill-opacity="0.12"/>
<circle cx="2.5" cy="80.5" r="2.5" fill="black" fill-opacity="0.12"/>
<circle cx="2.5" cy="113.5" r="2.5" fill="black" fill-opacity="0.12"/>
<circle cx="2.5" cy="91.5" r="2.5" fill="black" fill-opacity="0.12"/>
<circle cx="2.5" cy="124.5" r="2.5" fill="black" fill-opacity="0.12"/>
<circle cx="30.5" cy="69.5" r="2.5" fill="black" fill-opacity="0.12"/>
<circle cx="30.5" cy="102.5" r="2.5" fill="black" fill-opacity="0.12"/>
<circle cx="30.5" cy="80.5" r="2.5" fill="black" fill-opacity="0.12"/>
<circle cx="30.5" cy="113.5" r="2.5" fill="black" fill-opacity="0.12"/>
<circle cx="30.5" cy="91.5" r="2.5" fill="black" fill-opacity="0.12"/>
<circle cx="30.5" cy="124.5" r="2.5" fill="black" fill-opacity="0.12"/>
<circle cx="60.5" cy="69.5" r="2.5" fill="black" fill-opacity="0.12"/>
<circle cx="60.5" cy="102.5" r="2.5" fill="black" fill-opacity="0.12"/>
<circle cx="60.5" cy="80.5" r="2.5" fill="black" fill-opacity="0.12"/>
<circle cx="60.5" cy="113.5" r="2.5" fill="black" fill-opacity="0.12"/>
<circle cx="60.5" cy="91.5" r="2.5" fill="black" fill-opacity="0.12"/>
<circle cx="60.5" cy="124.5" r="2.5" fill="black" fill-opacity="0.12"/>
<circle cx="16.5" cy="69.5" r="2.5" fill="black" fill-opacity="0.12"/>
<circle cx="16.5" cy="102.5" r="2.5" fill="black" fill-opacity="0.12"/>
<circle cx="16.5" cy="80.5" r="2.5" fill="black" fill-opacity="0.12"/>
<circle cx="16.5" cy="113.5" r="2.5" fill="black" fill-opacity="0.12"/>
<circle cx="16.5" cy="91.5" r="2.5" fill="black" fill-opacity="0.12"/>
<circle cx="16.5" cy="124.5" r="2.5" fill="black" fill-opacity="0.12"/>
<circle cx="44.5" cy="69.5" r="2.5" fill="black" fill-opacity="0.12"/>
<circle cx="44.5" cy="102.5" r="2.5" fill="black" fill-opacity="0.12"/>
<circle cx="44.5" cy="80.5" r="2.5" fill="black" fill-opacity="0.12"/>
<circle cx="44.5" cy="113.5" r="2.5" fill="black" fill-opacity="0.12"/>
<circle cx="44.5" cy="91.5" r="2.5" fill="black" fill-opacity="0.12"/>
<circle cx="44.5" cy="124.5" r="2.5" fill="black" fill-opacity="0.12"/>
<circle cx="74.5" cy="69.5" r="2.5" fill="black" fill-opacity="0.12"/>
<circle cx="74.5" cy="102.5" r="2.5" fill="black" fill-opacity="0.12"/>
<circle cx="74.5" cy="80.5" r="2.5" fill="black" fill-opacity="0.12"/>
<circle cx="74.5" cy="113.5" r="2.5" fill="black" fill-opacity="0.12"/>
<circle cx="74.5" cy="91.5" r="2.5" fill="black" fill-opacity="0.12"/>
<circle cx="74.5" cy="124.5" r="2.5" fill="black" fill-opacity="0.12"/>
<circle cx="2.5" cy="2.5" r="2.5" fill="black" fill-opacity="0.12"/>
<circle cx="2.5" cy="35.5" r="2.5" fill="black" fill-opacity="0.12"/>
<circle cx="2.5" cy="13.5" r="2.5" fill="black" fill-opacity="0.12"/>
<circle cx="2.5" cy="46.5" r="2.5" fill="black" fill-opacity="0.12"/>
<circle cx="2.5" cy="24.5" r="2.5" fill="black" fill-opacity="0.12"/>
<circle cx="2.5" cy="57.5" r="2.5" fill="black" fill-opacity="0.12"/>
<circle cx="30.5" cy="2.5" r="2.5" fill="black" fill-opacity="0.12"/>
<circle cx="30.5" cy="35.5" r="2.5" fill="black" fill-opacity="0.12"/>
<circle cx="30.5" cy="13.5" r="2.5" fill="black" fill-opacity="0.12"/>
<circle cx="30.5" cy="46.5" r="2.5" fill="black" fill-opacity="0.12"/>
<circle cx="30.5" cy="24.5" r="2.5" fill="black" fill-opacity="0.12"/>
<circle cx="30.5" cy="57.5" r="2.5" fill="black" fill-opacity="0.12"/>
<circle cx="60.5" cy="2.5" r="2.5" fill="black" fill-opacity="0.12"/>
<circle cx="60.5" cy="35.5" r="2.5" fill="black" fill-opacity="0.12"/>
<circle cx="60.5" cy="13.5" r="2.5" fill="black" fill-opacity="0.12"/>
<circle cx="60.5" cy="46.5" r="2.5" fill="black" fill-opacity="0.12"/>
<circle cx="60.5" cy="24.5" r="2.5" fill="black" fill-opacity="0.12"/>
<circle cx="60.5" cy="57.5" r="2.5" fill="black" fill-opacity="0.12"/>
<circle cx="16.5" cy="2.5" r="2.5" fill="black" fill-opacity="0.12"/>
<circle cx="16.5" cy="35.5" r="2.5" fill="black" fill-opacity="0.12"/>
<circle cx="16.5" cy="13.5" r="2.5" fill="black" fill-opacity="0.12"/>
<circle cx="16.5" cy="46.5" r="2.5" fill="black" fill-opacity="0.12"/>
<circle cx="16.5" cy="24.5" r="2.5" fill="black" fill-opacity="0.12"/>
<circle cx="16.5" cy="57.5" r="2.5" fill="black" fill-opacity="0.12"/>
<circle cx="44.5" cy="2.5" r="2.5" fill="black" fill-opacity="0.12"/>
<circle cx="44.5" cy="35.5" r="2.5" fill="black" fill-opacity="0.12"/>
<circle cx="44.5" cy="13.5" r="2.5" fill="black" fill-opacity="0.12"/>
<circle cx="44.5" cy="46.5" r="2.5" fill="black" fill-opacity="0.12"/>
<circle cx="44.5" cy="24.5" r="2.5" fill="black" fill-opacity="0.12"/>
<circle cx="44.5" cy="57.5" r="2.5" fill="black" fill-opacity="0.12"/>
<circle cx="74.5" cy="2.5" r="2.5" fill="black" fill-opacity="0.12"/>
<circle cx="74.5" cy="35.5" r="2.5" fill="black" fill-opacity="0.12"/>
<circle cx="74.5" cy="13.5" r="2.5" fill="black" fill-opacity="0.12"/>
<circle cx="74.5" cy="46.5" r="2.5" fill="black" fill-opacity="0.12"/>
<circle cx="74.5" cy="24.5" r="2.5" fill="black" fill-opacity="0.12"/>
<circle cx="74.5" cy="57.5" r="2.5" fill="black" fill-opacity="0.12"/>
<circle cx="85.5" cy="2.5" r="2.5" fill="black" fill-opacity="0.12"/>
<circle cx="85.5" cy="35.5" r="2.5" fill="black" fill-opacity="0.12"/>
<circle cx="85.5" cy="13.5" r="2.5" fill="black" fill-opacity="0.12"/>
<circle cx="85.5" cy="46.5" r="2.5" fill="black" fill-opacity="0.12"/>
<circle cx="85.5" cy="24.5" r="2.5" fill="black" fill-opacity="0.12"/>
<circle cx="85.5" cy="57.5" r="2.5" fill="black" fill-opacity="0.12"/>
<circle cx="113.5" cy="2.5" r="2.5" fill="black" fill-opacity="0.12"/>
<circle cx="113.5" cy="35.5" r="2.5" fill="black" fill-opacity="0.12"/>
<circle cx="113.5" cy="13.5" r="2.5" fill="black" fill-opacity="0.12"/>
<circle cx="113.5" cy="46.5" r="2.5" fill="black" fill-opacity="0.12"/>
<circle cx="113.5" cy="24.5" r="2.5" fill="black" fill-opacity="0.12"/>
<circle cx="113.5" cy="57.5" r="2.5" fill="black" fill-opacity="0.12"/>
<circle cx="143.5" cy="2.5" r="2.5" fill="black" fill-opacity="0.12"/>
<circle cx="143.5" cy="35.5" r="2.5" fill="black" fill-opacity="0.12"/>
<circle cx="143.5" cy="13.5" r="2.5" fill="black" fill-opacity="0.12"/>
<circle cx="143.5" cy="46.5" r="2.5" fill="black" fill-opacity="0.12"/>
<circle cx="143.5" cy="24.5" r="2.5" fill="black" fill-opacity="0.12"/>
<circle cx="143.5" cy="57.5" r="2.5" fill="black" fill-opacity="0.12"/>
<circle cx="99.5" cy="2.5" r="2.5" fill="black" fill-opacity="0.12"/>
<circle cx="99.5" cy="35.5" r="2.5" fill="black" fill-opacity="0.12"/>
<circle cx="99.5" cy="13.5" r="2.5" fill="black" fill-opacity="0.12"/>
<circle cx="99.5" cy="46.5" r="2.5" fill="black" fill-opacity="0.12"/>
<circle cx="99.5" cy="24.5" r="2.5" fill="black" fill-opacity="0.12"/>
<circle cx="99.5" cy="57.5" r="2.5" fill="black" fill-opacity="0.12"/>
<circle cx="127.5" cy="2.5" r="2.5" fill="black" fill-opacity="0.12"/>
<circle cx="127.5" cy="35.5" r="2.5" fill="black" fill-opacity="0.12"/>
<circle cx="127.5" cy="13.5" r="2.5" fill="black" fill-opacity="0.12"/>
<circle cx="127.5" cy="46.5" r="2.5" fill="black" fill-opacity="0.12"/>
<circle cx="127.5" cy="24.5" r="2.5" fill="black" fill-opacity="0.12"/>
<circle cx="127.5" cy="57.5" r="2.5" fill="black" fill-opacity="0.12"/>
<circle cx="157.5" cy="2.5" r="2.5" fill="black" fill-opacity="0.12"/>
<circle cx="157.5" cy="35.5" r="2.5" fill="black" fill-opacity="0.12"/>
<circle cx="157.5" cy="13.5" r="2.5" fill="black" fill-opacity="0.12"/>
<circle cx="157.5" cy="46.5" r="2.5" fill="black" fill-opacity="0.12"/>
<circle cx="157.5" cy="24.5" r="2.5" fill="black" fill-opacity="0.12"/>
<circle cx="157.5" cy="57.5" r="2.5" fill="black" fill-opacity="0.12"/>
<circle cx="85.5" cy="69.5" r="2.5" fill="black" fill-opacity="0.12"/>
<circle cx="85.5" cy="102.5" r="2.5" fill="black" fill-opacity="0.12"/>
<circle cx="85.5" cy="80.5" r="2.5" fill="black" fill-opacity="0.12"/>
<circle cx="85.5" cy="113.5" r="2.5" fill="black" fill-opacity="0.12"/>
<circle cx="85.5" cy="91.5" r="2.5" fill="black" fill-opacity="0.12"/>
<circle cx="85.5" cy="124.5" r="2.5" fill="black" fill-opacity="0.12"/>
<circle cx="113.5" cy="69.5" r="2.5" fill="black" fill-opacity="0.12"/>
<circle cx="113.5" cy="102.5" r="2.5" fill="black" fill-opacity="0.12"/>
<circle cx="113.5" cy="80.5" r="2.5" fill="black" fill-opacity="0.12"/>
<circle cx="113.5" cy="113.5" r="2.5" fill="black" fill-opacity="0.12"/>
<circle cx="113.5" cy="91.5" r="2.5" fill="black" fill-opacity="0.12"/>
<circle cx="113.5" cy="124.5" r="2.5" fill="black" fill-opacity="0.12"/>
<circle cx="143.5" cy="69.5" r="2.5" fill="black" fill-opacity="0.12"/>
<circle cx="143.5" cy="102.5" r="2.5" fill="black" fill-opacity="0.12"/>
<circle cx="143.5" cy="80.5" r="2.5" fill="black" fill-opacity="0.12"/>
<circle cx="143.5" cy="113.5" r="2.5" fill="black" fill-opacity="0.12"/>
<circle cx="143.5" cy="91.5" r="2.5" fill="black" fill-opacity="0.12"/>
<circle cx="143.5" cy="124.5" r="2.5" fill="black" fill-opacity="0.12"/>
<circle cx="99.5" cy="69.5" r="2.5" fill="black" fill-opacity="0.12"/>
<circle cx="99.5" cy="102.5" r="2.5" fill="black" fill-opacity="0.12"/>
<circle cx="99.5" cy="80.5" r="2.5" fill="black" fill-opacity="0.12"/>
<circle cx="99.5" cy="113.5" r="2.5" fill="black" fill-opacity="0.12"/>
<circle cx="99.5" cy="91.5" r="2.5" fill="black" fill-opacity="0.12"/>
<circle cx="99.5" cy="124.5" r="2.5" fill="black" fill-opacity="0.12"/>
<circle cx="127.5" cy="69.5" r="2.5" fill="black" fill-opacity="0.12"/>
<circle cx="127.5" cy="102.5" r="2.5" fill="black" fill-opacity="0.12"/>
<circle cx="127.5" cy="80.5" r="2.5" fill="black" fill-opacity="0.12"/>
<circle cx="127.5" cy="113.5" r="2.5" fill="black" fill-opacity="0.12"/>
<circle cx="127.5" cy="91.5" r="2.5" fill="black" fill-opacity="0.12"/>
<circle cx="127.5" cy="124.5" r="2.5" fill="black" fill-opacity="0.12"/>
<circle cx="157.5" cy="69.5" r="2.5" fill="black" fill-opacity="0.12"/>
<circle cx="157.5" cy="102.5" r="2.5" fill="black" fill-opacity="0.12"/>
<circle cx="157.5" cy="80.5" r="2.5" fill="black" fill-opacity="0.12"/>
<circle cx="157.5" cy="113.5" r="2.5" fill="black" fill-opacity="0.12"/>
<circle cx="157.5" cy="91.5" r="2.5" fill="black" fill-opacity="0.12"/>
<circle cx="157.5" cy="124.5" r="2.5" fill="black" fill-opacity="0.12"/>
</svg>
