<svg id="gear" viewBox="0 0 21 21" xmlns="http://www.w3.org/2000/svg">
<path d="M18.3976 11.5395L18.387 11.5605C18.4294 11.214 18.4719 10.857 18.4719 10.5C18.4719 10.143 18.4401 9.807 18.3976 9.4605L18.4082 9.4815L21 7.4655L18.4188 3.0345L15.3703 4.2525L15.3809 4.263C14.8285 3.843 14.2231 3.486 13.5645 3.213H13.5751L13.0865 0H7.91351L7.44613 3.2235H7.45675C6.79818 3.4965 6.19272 3.8535 5.64036 4.2735L5.65099 4.263L2.59181 3.0345L0 7.4655L2.59181 9.4815L2.60243 9.4605C2.55994 9.807 2.52807 10.143 2.52807 10.5C2.52807 10.857 2.55994 11.214 2.61305 11.5605L2.60243 11.5395L0.371776 13.272L0.0212445 13.545L2.60243 17.955L5.66161 16.7475L5.64036 16.7055C6.20334 17.136 6.8088 17.493 7.478 17.766H7.44613L7.92413 21H13.0759C13.0759 21 13.1077 20.811 13.1396 20.559L13.5432 17.7765H13.5326C14.1912 17.5035 14.8073 17.1465 15.3703 16.716L15.349 16.758L18.4082 17.9655L20.9894 13.5555C20.9894 13.5555 20.8407 13.4295 20.6388 13.2825L18.3976 11.5395ZM10.4947 14.175C8.44461 14.175 6.77693 12.5265 6.77693 10.5C6.77693 8.4735 8.44461 6.825 10.4947 6.825C12.5448 6.825 14.2124 8.4735 14.2124 10.5C14.2124 12.5265 12.5448 14.175 10.4947 14.175Z"/>
</svg>
