<svg viewBox="0 0 332 200" fill="none" xmlns="http://www.w3.org/2000/svg">
<path d="M93.1121 0.500023C14.7121 1.70002 -1.55459 65.3334 0.112078 97H186.112C187.779 64.3334 171.512 -0.699977 93.1121 0.500023Z" fill="white" fill-opacity="0.2"/>
<path d="M142.272 54.7628C142.272 54.7628 134.76 72.8569 126.44 76.8957C120.381 79.8845 112.95 77.865 107.457 77.3804C106.892 77.2996 106.326 77.2188 105.68 77.1381C103.337 76.8957 100.914 76.7342 98.4908 76.7342C86.2127 76.7342 75.3886 80.1268 69.4111 85.2158C58.183 80.773 50.9939 73.907 50.9939 66.2331C50.9939 57.1053 61.091 49.1892 76.0348 45.0695C80.0736 43.9387 84.5164 43.1309 89.1207 42.6462C89.4438 42.6462 89.7669 42.5654 90.09 42.5654C93.2403 42.1616 96.4714 42 99.7832 42C102.61 42 105.195 42.1616 107.457 42.3231C113.031 42.8078 116.908 43.6155 117.877 43.7771C128.298 45.8773 136.941 49.7546 142.272 54.7628Z" fill="url(#paint0_linear)"/>
<path d="M117.15 185.056C115.212 190.226 111.657 194.426 107.053 197.496C106.972 197.496 106.972 197.496 106.892 197.496V197.577C99.7833 199.111 92.1094 200 84.1933 200C81.3661 200 78.5389 199.919 75.7925 199.677C71.8344 199.354 67.9571 198.869 64.0798 198.142C63.8374 198.061 63.5951 198.061 63.3528 197.981C63.1104 197.9 62.7873 197.9 62.545 197.819C61.2526 197.577 60.0409 197.334 58.7485 197.011C52.2055 195.476 46.1472 193.457 41.0583 190.953C39.8466 190.388 38.7157 189.741 37.6656 189.176L35 187.641L37.9888 176.009L38.1503 175.444C38.1503 175.363 38.1503 175.282 38.2311 175.201L38.4734 174.151C40.8967 165.427 48.3282 159.854 57.456 159.854C60.2832 159.854 63.9182 160.985 64.5644 161.146C72.2383 163.489 81.6084 164.943 91.7055 164.943C100.349 164.943 108.426 163.893 115.373 162.116C119.089 169.628 119.978 177.706 117.15 185.056Z" fill="#FAFCFF"/>
<path d="M106.972 197.496C106.892 197.496 106.892 197.577 106.811 197.577V197.496C106.892 197.496 106.972 197.496 106.972 197.496Z" fill="black"/>
<path d="M148.896 150.564C148.896 173.667 132.579 191.761 107.053 197.496C111.658 194.426 115.212 190.226 117.15 185.056C123.532 168.335 110.769 147.818 88.5552 139.336C87.7475 139.013 86.9397 138.771 86.1319 138.448H86.0512C84.9203 138.044 83.6278 137.559 82.3354 137.155C61.1718 130.047 37.0194 118.334 37.0194 90.1432C37.0194 68.0103 52.1248 50.9663 76.7618 44.9888C71.1882 49.4315 67.5532 55.0859 66.5839 61.6289C64.6452 75.1186 74.8231 88.3661 91.1401 96.0399C91.1401 96.0399 91.1401 96.0399 91.2209 96.0399C95.0982 97.9786 100.268 100.16 106.892 102.664C136.295 113.084 148.896 127.381 148.896 150.564Z" fill="url(#paint1_linear)"/>
<path d="M162.028 161.965V114C183.364 114 189.254 123.732 189.532 128.598V161.965C189.532 179.649 218.286 178.648 218.286 161.965C218.147 155.57 217.952 139.943 218.286 128.598C218.619 117.253 236.205 114.139 244.956 114V161.965C245.651 173.643 238.372 197 203.7 197C169.029 197 161.472 173.643 162.028 161.965Z" fill="url(#paint2_linear)"/>
<path d="M210.32 84H216.8V56H210.32V84ZM242.725 56V73L228.805 56H223.445V84H229.845V67L243.805 84H249.125V56H242.725ZM264.95 84.48C272.95 84.48 276.83 80.48 276.83 75.8C276.83 65.52 260.55 69.08 260.55 63.92C260.55 62.16 262.03 60.72 265.87 60.72C268.35 60.72 271.03 61.44 273.63 62.92L275.63 58C273.03 56.36 269.43 55.52 265.91 55.52C257.95 55.52 254.11 59.48 254.11 64.24C254.11 74.64 270.39 71.04 270.39 76.28C270.39 78 268.83 79.28 264.99 79.28C261.63 79.28 258.11 78.08 255.75 76.36L253.55 81.24C256.03 83.16 260.51 84.48 264.95 84.48ZM286.667 84H293.147V61.28H302.107V56H277.707V61.28H286.667V84ZM325.107 84H331.907L319.387 56H312.987L300.507 84H307.147L309.627 78H322.627L325.107 84ZM311.707 73.08L316.147 62.36L320.587 73.08H311.707Z" fill="white"/>
<path d="M308 114H268L284 126H298.5C313.3 126 315 142.5 298.5 142.5H284L270 154H308C339.6 154 340 114 308 114Z" fill="url(#paint3_linear)"/>
<path d="M308 154H268L284 166H298.5C313.3 166 315 182.5 298.5 182.5H284L280 194H308C339.6 194 340 154 308 154Z" fill="url(#paint4_linear)"/>
<rect x="260" y="114" width="27" height="80" rx="5" fill="url(#paint5_linear)"/>
<defs>
<linearGradient id="paint0_linear" x1="139.942" y1="71.0135" x2="62.3861" y2="59.9817" gradientUnits="userSpaceOnUse">
<stop stop-color="white"/>
<stop offset="1" stop-color="#83B4FF"/>
</linearGradient>
<linearGradient id="paint1_linear" x1="37.0459" y1="121.213" x2="148.877" y2="121.213" gradientUnits="userSpaceOnUse">
<stop stop-color="#0066FF"/>
<stop offset="1" stop-color="white"/>
</linearGradient>
<linearGradient id="paint2_linear" x1="203.5" y1="185.682" x2="203.5" y2="55.5227" gradientUnits="userSpaceOnUse">
<stop stop-color="white"/>
<stop offset="1" stop-color="white" stop-opacity="0"/>
</linearGradient>
<linearGradient id="paint3_linear" x1="299.925" y1="114" x2="337" y2="114" gradientUnits="userSpaceOnUse">
<stop stop-color="#F2F2F2"/>
<stop offset="1" stop-color="white"/>
</linearGradient>
<linearGradient id="paint4_linear" x1="299.925" y1="154" x2="299.925" y2="194" gradientUnits="userSpaceOnUse">
<stop stop-color="#F2F2F2"/>
<stop offset="1" stop-color="white"/>
</linearGradient>
<linearGradient id="paint5_linear" x1="273.5" y1="114" x2="273.5" y2="194" gradientUnits="userSpaceOnUse">
<stop stop-color="#F2F2F2"/>
<stop offset="1" stop-color="white"/>
</linearGradient>
</defs>
</svg>
