<svg width="332" height="200" viewBox="0 0 332 200" fill="none" xmlns="http://www.w3.org/2000/svg">
<path d="M93.1121 0.01638C14.7121 1.21638 -1.55459 64.8497 0.112078 96.5164H186.112C187.779 63.8497 171.512 -1.18362 93.1121 0.01638Z" fill="white" fill-opacity="0.2"/>
<path d="M142.272 54.2791C142.272 54.2791 134.76 72.3732 126.44 76.4121C120.381 79.4008 112.95 77.3814 107.457 76.8967C106.892 76.816 106.326 76.7352 105.68 76.6544C103.337 76.4121 100.914 76.2505 98.4908 76.2505C86.2127 76.2505 75.3886 79.6432 69.4111 84.7321C58.183 80.2894 50.9939 73.4233 50.9939 65.7495C50.9939 56.6217 61.091 48.7055 76.0348 44.5859C80.0736 43.455 84.5164 42.6472 89.1207 42.1626C89.4438 42.1626 89.7669 42.0818 90.09 42.0818C93.2403 41.6779 96.4714 41.5164 99.7832 41.5164C102.61 41.5164 105.195 41.6779 107.457 41.8395C113.031 42.3241 116.908 43.1319 117.877 43.2935C128.298 45.3937 136.941 49.271 142.272 54.2791Z" fill="url(#paint0_linear)"/>
<path d="M117.15 184.573C115.212 189.742 111.657 193.943 107.053 197.012C106.972 197.012 106.972 197.012 106.892 197.012V197.093C99.7833 198.628 92.1094 199.516 84.1933 199.516C81.3661 199.516 78.5389 199.436 75.7925 199.193C71.8344 198.87 67.9571 198.385 64.0798 197.658C63.8374 197.578 63.5951 197.578 63.3528 197.497C63.1104 197.416 62.7873 197.416 62.545 197.335C61.2526 197.093 60.0409 196.851 58.7485 196.528C52.2055 194.993 46.1472 192.973 41.0583 190.469C39.8466 189.904 38.7157 189.258 37.6656 188.692L35 187.157L37.9888 175.526L38.1503 174.96C38.1503 174.879 38.1503 174.799 38.2311 174.718L38.4734 173.668C40.8967 164.944 48.3282 159.37 57.456 159.37C60.2832 159.37 63.9182 160.501 64.5644 160.663C72.2383 163.005 81.6084 164.459 91.7055 164.459C100.349 164.459 108.426 163.409 115.373 161.632C119.089 169.144 119.978 177.222 117.15 184.573Z" fill="url(#paint1_linear)"/>
<path d="M106.972 197.012C106.892 197.012 106.892 197.093 106.811 197.093V197.012C106.892 197.012 106.972 197.012 106.972 197.012Z" fill="black"/>
<path d="M148.896 150.081C148.896 173.183 132.579 191.277 107.053 197.012C111.658 193.943 115.212 189.742 117.15 184.573C123.532 167.852 110.769 147.334 88.5552 138.853C87.7475 138.53 86.9397 138.287 86.1319 137.964H86.0512C84.9203 137.56 83.6278 137.076 82.3354 136.672C61.1718 129.563 37.0194 117.851 37.0194 89.6595C37.0194 67.5266 52.1248 50.4826 76.7618 44.5051C71.1882 48.9479 67.5532 54.6023 66.5839 61.1452C64.6452 74.635 74.8231 87.8824 91.1401 95.5563C91.1401 95.5563 91.1401 95.5563 91.2209 95.5563C95.0982 97.4949 100.268 99.6759 106.892 102.18C136.295 112.6 148.896 126.898 148.896 150.081Z" fill="url(#paint2_linear)"/>
<path d="M162.028 161.481V113.516C183.364 113.516 189.254 123.248 189.532 128.114V161.481C189.532 179.166 218.286 178.165 218.286 161.481C218.147 155.086 217.952 139.459 218.286 128.114C218.619 116.77 236.205 113.655 244.956 113.516V161.481C245.651 173.16 238.372 196.516 203.7 196.516C169.029 196.516 161.472 173.16 162.028 161.481Z" fill="#0066FF"/>
<path d="M210.32 83.5164H216.8V55.5164H210.32V83.5164ZM242.725 55.5164V72.5164L228.805 55.5164H223.445V83.5164H229.845V66.5164L243.805 83.5164H249.125V55.5164H242.725ZM264.95 83.9964C272.95 83.9964 276.83 79.9964 276.83 75.3164C276.83 65.0364 260.55 68.5964 260.55 63.4364C260.55 61.6764 262.03 60.2364 265.87 60.2364C268.35 60.2364 271.03 60.9564 273.63 62.4364L275.63 57.5164C273.03 55.8764 269.43 55.0364 265.91 55.0364C257.95 55.0364 254.11 58.9964 254.11 63.7564C254.11 74.1564 270.39 70.5564 270.39 75.7964C270.39 77.5164 268.83 78.7964 264.99 78.7964C261.63 78.7964 258.11 77.5964 255.75 75.8764L253.55 80.7564C256.03 82.6764 260.51 83.9964 264.95 83.9964ZM286.667 83.5164H293.147V60.7964H302.107V55.5164H277.707V60.7964H286.667V83.5164ZM325.107 83.5164H331.907L319.387 55.5164H312.987L300.507 83.5164H307.147L309.627 77.5164H322.627L325.107 83.5164ZM311.707 72.5964L316.147 61.8764L320.587 72.5964H311.707Z" fill="#0066FF"/>
<path d="M308 113.516H268L284 125.516H298.5C313.3 125.516 315 142.016 298.5 142.016H284L270 153.516H308C339.6 153.516 340 113.516 308 113.516Z" fill="#0066FF"/>
<path d="M308 153.516H268L284 165.516H298.5C313.3 165.516 315 182.016 298.5 182.016H284L280 193.516H308C339.6 193.516 340 153.516 308 153.516Z" fill="url(#paint3_linear)"/>
<rect x="260" y="113.516" width="27" height="80" rx="5" fill="url(#paint4_linear)"/>
<defs>
<linearGradient id="paint0_linear" x1="139.942" y1="70.5299" x2="62.3861" y2="59.4981" gradientUnits="userSpaceOnUse">
<stop stop-color="#0066FF"/>
<stop offset="1" stop-color="#1271FF"/>
</linearGradient>
<linearGradient id="paint1_linear" x1="43" y1="159.516" x2="113.5" y2="184.516" gradientUnits="userSpaceOnUse">
<stop offset="0.27781" stop-color="#076AFF"/>
<stop offset="1" stop-color="#076AFF" stop-opacity="0"/>
</linearGradient>
<linearGradient id="paint2_linear" x1="37.0459" y1="120.729" x2="148.877" y2="120.729" gradientUnits="userSpaceOnUse">
<stop stop-color="white"/>
<stop offset="0.505208" stop-color="#0066FF"/>
</linearGradient>
<linearGradient id="paint3_linear" x1="299.925" y1="153.516" x2="299.925" y2="193.516" gradientUnits="userSpaceOnUse">
<stop stop-color="#0066FF"/>
<stop offset="1" stop-color="#0066FF"/>
</linearGradient>
<linearGradient id="paint4_linear" x1="273.5" y1="113.516" x2="273.5" y2="193.516" gradientUnits="userSpaceOnUse">
<stop stop-color="#0066FF"/>
<stop offset="1" stop-color="#0066FF"/>
</linearGradient>
</defs>
</svg>
