<?xml version="1.0" encoding="iso-8859-1"?>
<!-- Generator: Adobe Illustrator 19.0.0, SVG Export Plug-In . SVG Version: 6.00 Build 0)  -->
<svg id="stats" version="1.1" xmlns="http://www.w3.org/2000/svg" xmlns:xlink="http://www.w3.org/1999/xlink" x="0px" y="0px"
	 viewBox="0 0 512 512" style="enable-background:new 0 0 512 512;" xml:space="preserve">
<g>
	<g>
		<path d="M414.116,435.497l-65.413-65.412c-5.043-5.043-12.942-5.839-18.892-1.897c-22.177,14.693-48.022,22.46-74.745,22.46
			c-64.232,0-120.112-45.609-132.869-108.449c-1.419-6.991-7.566-12.016-14.7-12.016H15c-4.3,0-8.394,1.846-11.241,5.068
			c-2.847,3.222-4.174,7.512-3.645,11.779C16.03,415.284,125.635,512,255.066,512c57.714,0,112.231-18.693,157.658-54.061
			c3.394-2.643,5.49-6.614,5.757-10.907C418.747,442.739,417.158,438.538,414.116,435.497z"/>
	</g>
</g>
<g>
	<g>
		<path d="M234.882,3.758c-3.223-2.847-7.509-4.171-11.779-3.645C107.469,14.464,14.622,106.201,0.114,223.102
			c-0.529,4.268,0.798,8.558,3.645,11.779C6.606,238.104,10.7,239.95,15,239.95h92.497c7.134,0,13.281-5.024,14.7-12.016
			c10.782-53.119,52.617-94.955,105.737-105.737c6.991-1.419,12.016-7.566,12.016-14.7V14.999
			C239.95,10.7,238.104,6.606,234.882,3.758z"/>
	</g>
</g>
<g>
	<g>
		<path d="M287.03,0.114c-4.264-0.524-8.557,0.798-11.779,3.645c-3.223,2.848-5.068,6.941-5.068,11.241v92.497
			c0,7.134,5.024,13.281,12.016,14.7c62.84,12.757,108.449,68.637,108.449,132.869c0,26.723-7.767,52.568-22.46,74.745
			c-3.94,5.947-3.147,13.847,1.897,18.892l65.412,65.413c2.821,2.822,6.641,4.394,10.605,4.394c0.309,0,0.619-0.01,0.93-0.028
			c4.293-0.267,8.265-2.363,10.907-5.757C493.307,367.297,512,312.78,512,255.066C512,125.635,415.284,16.03,287.03,0.114z"/>
	</g>
</g>
<g>
	<g>
		<path d="M255.07,180.07c-41.355,0-75,33.645-75,75s33.645,75,75,75s75-33.645,75-75C330.07,213.715,296.426,180.07,255.07,180.07z
			"/>
	</g>
</g>
</svg>
